<svg xmlns="http://www.w3.org/2000/svg" version="1.1" viewBox="1.3116607666015625 1.6400001049041748 196.0799102783203 325.8356018066406" width="199.00" height="329.00">
<path fill="#41abd3" d="&#10;  M 147.54 35.26&#10;  Q 171.21 35.24 194.35 35.31&#10;  Q 195.34 35.31 196.28 35.56&#10;  Q 197.25 35.82 197.25 36.82&#10;  Q 197.63 124.72 196.99 207.01&#10;  Q 196.89 219.08 197.34 228.69&#10;  A 2.62 2.61 -19.7 0 1 196.29 230.90&#10;  Q 194.71 232.08 193.38 233.64&#10;  C 187.76 240.19 181.70 245.68 175.94 251.62&#10;  Q 163.03 264.94 150.48 277.10&#10;  C 133.19 293.88 116.77 311.68 99.36 327.31&#10;  A 0.64 0.64 0.0 0 1 98.49 327.30&#10;  C 94.57 323.65 91.14 319.70 87.10 316.29&#10;  Q 81.17 311.28 76.60 306.15&#10;  Q 73.81 303.01 71.37 300.86&#10;  C 66.46 296.54 62.17 291.69 57.50 287.14&#10;  C 52.56 282.32 48.11 276.74 42.67 272.56&#10;  Q 39.18 269.87 36.76 266.80&#10;  C 31.47 260.10 24.23 255.60 19.10 248.80&#10;  Q 16.95 245.95 14.33 243.82&#10;  Q 7.85 238.54 2.75 232.27&#10;  C 0.99 230.11 1.34 226.19 1.34 223.63&#10;  Q 1.36 129.69 1.45 35.00&#10;  A 0.37 0.37 0.0 0 1 1.82 34.63&#10;  L 50.22 34.81&#10;  Q 50.88 34.81 50.90 34.15&#10;  L 51.14 23.08&#10;  A 0.54 0.53 -89.4 0 1 51.67 22.55&#10;  L 66.39 22.63&#10;  A 1.03 1.02 0.0 0 0 67.42 21.61&#10;  L 67.40 2.25&#10;  A 0.60 0.60 0.0 0 1 68.00 1.65&#10;  L 129.71 1.64&#10;  Q 130.29 1.64 130.30 2.21&#10;  L 130.59 23.25&#10;  A 0.42 0.42 0.0 0 0 131.01 23.67&#10;  L 145.95 23.61&#10;  A 0.78 0.78 0.0 0 1 146.74 24.38&#10;  L 146.84 34.56&#10;  Q 146.85 35.26 147.54 35.26&#10;  Z&#10;  M 145.58 74.55&#10;  Q 100.41 74.37 54.13 74.41&#10;  Q 52.71 74.41 51.41 74.16&#10;  A 1.02 1.01 -84.5 0 1 50.59 73.16&#10;  L 50.64 60.32&#10;  A 0.83 0.82 90.0 0 0 49.82 59.49&#10;  L 23.30 59.50&#10;  A 0.45 0.45 0.0 0 0 22.85 59.95&#10;  L 22.90 194.05&#10;  Q 22.90 194.70 23.55 194.70&#10;  L 174.63 194.39&#10;  Q 175.14 194.39 175.14 193.87&#10;  L 175.15 60.55&#10;  A 1.09 1.09 0.0 0 0 174.05 59.46&#10;  L 147.38 59.60&#10;  A 0.77 0.77 0.0 0 0 146.62 60.37&#10;  L 146.63 73.50&#10;  A 1.05 1.04 -89.7 0 1 145.58 74.55&#10;  Z&#10;  M 109.2779 252.4528&#10;  A 10.58 10.18 3.7 0 0 99.3769 241.6112&#10;  A 10.58 10.18 3.7 0 0 88.1621 251.0872&#10;  A 10.58 10.18 3.7 0 0 98.0631 261.9288&#10;  A 10.58 10.18 3.7 0 0 109.2779 252.4528&#10;  Z"/>
<rect fill="#41abd3" x="49.47" y="103.61" width="98.26" height="18.12" rx="0.81"/>
<path fill="#41abd3" d="&#10;  M 147.81 169.39&#10;  A 0.79 0.79 0.0 0 1 147.02 170.17&#10;  L 146.93 170.17&#10;  A 97.74 0.91 0.1 0 1 49.19 169.09&#10;  L 49.23 151.67&#10;  A 97.74 0.91 0.1 0 1 146.97 150.93&#10;  L 147.06 150.93&#10;  A 0.79 0.79 0.0 0 1 147.85 151.73&#10;  L 147.81 169.39&#10;  Z"/>
</svg>